<?xml version="1.0" encoding="UTF-8"?>
<svg version="1.1" xmlns="http://www.w3.org/2000/svg" width="415.598" height="474.364" viewBox="74.402 21.636 415.598 474.364">
<path d="M0 0 C0.68964844 0.34353516 1.37929688 0.68707031 2.08984375 1.04101562 C7.83057599 3.96626446 12.39450144 7.54105705 16.875 12.1875 C17.12378906 11.59839844 17.37257813 11.00929687 17.62890625 10.40234375 C21.74267873 3.09040331 31.27739323 -1.12838199 38.875 -3.8125 C51.91429604 -6.57148851 66.99730399 -5.74693232 78.56640625 1.31640625 C86.68385751 6.6654846 86.68385751 6.6654846 89.6328125 10.43359375 C93.23775568 13.25348833 97.11416022 12.74674114 101.5625 12.75 C115.59383433 12.82357254 126.33251018 17.22996725 136.60546875 26.80859375 C140.07381773 30.44409208 143.00839283 34.43808557 144.53125 39.26953125 C146.67152773 42.3244044 149.92983721 42.67481823 153.375 43.5625 C166.33135446 47.30464663 177.12261834 54.33966632 184.6171875 65.8671875 C186.79863199 69.89134287 187.875 72.54796352 187.875 77.1875 C188.535 77.1875 189.195 77.1875 189.875 77.1875 C190.205 78.5075 190.535 79.8275 190.875 81.1875 C191.865 79.8675 192.855 78.5475 193.875 77.1875 C194.0049639 82.77594765 194.0049639 82.77594765 193.125 85.5625 C192.72678716 89.74373477 194.5378473 92.7892661 196.875 96.1875 C198.37841361 97.61644822 198.37841361 97.61644822 200 98.8125 C203.39397907 101.61622184 203.55464955 103.06800659 204.875 107.1875 C206.480728 110.60475063 208.27048992 113.93139605 210.04101562 117.265625 C212.10096851 121.25606977 213.41400192 124.64844193 213.875 129.1875 C214.535 129.1875 215.195 129.1875 215.875 129.1875 C217.20354177 135.1055497 216.53964729 137.96479131 213.875 143.1875 C214.535 143.1875 215.195 143.1875 215.875 143.1875 C215.73269192 144.60452513 215.58599254 146.0211096 215.4375 147.4375 C215.35628906 148.22640625 215.27507812 149.0153125 215.19140625 149.828125 C214.875 152.1875 214.875 152.1875 214.28125 154.265625 C213.61416029 157.42147248 214.95440304 160.1549453 215.875 163.1875 C215.875 164.5075 215.875 165.8275 215.875 167.1875 C216.865 166.8575 217.855 166.5275 218.875 166.1875 C218.83375 167.074375 218.7925 167.96125 218.75 168.875 C218.87710421 172.24326152 219.60165037 174.11648032 220.875 177.1875 C221.019375 178.404375 221.16375 179.62125 221.3125 180.875 C221.498125 181.968125 221.68375 183.06125 221.875 184.1875 C222.865 184.8475 223.855 185.5075 224.875 186.1875 C224.5936941 188.64743028 224.30047269 191.10490248 224 193.5625 C223.92136719 194.26117188 223.84273438 194.95984375 223.76171875 195.6796875 C223.1015625 200.9609375 223.1015625 200.9609375 220.875 203.1875 C220.04948242 205.17845651 220.04948242 205.17845651 219.375 207.4375 C218.98441406 208.6440625 218.98441406 208.6440625 218.5859375 209.875 C218.019361 211.71793014 217.50124345 213.57573862 217 215.4375 C215.59559434 218.87049162 213.54586308 220.64692293 210.875 223.1875 C206.29316173 229.89662032 206.86165102 235.50155057 207.1328125 243.4609375 C206.85548063 247.46964363 205.83887251 249.7294853 203.875 253.1875 C203.17592586 255.92322585 203.17592586 255.92322585 202.875 258.1875 C202.215 258.1875 201.555 258.1875 200.875 258.1875 C200.875 259.8375 200.875 261.4875 200.875 263.1875 C200.215 263.5175 199.555 263.8475 198.875 264.1875 C198.483125 265.05375 198.09125 265.92 197.6875 266.8125 C193.60987837 274.4053127 186.28496245 279.97025449 178.875 284.1875 C177.21990239 284.57420505 175.55168913 284.90892783 173.875 285.1875 C170.70109546 286.23181698 167.71582665 287.41567464 164.875 289.1875 C163.96611938 291.64798456 163.96611938 291.64798456 163.875 294.1875 C162.58144173 295.55945574 161.25201298 296.89932656 159.875 298.1875 C159.875 298.8475 159.875 299.5075 159.875 300.1875 C157.00459018 303.60991171 153.94939207 305.41602519 149.875 307.1875 C149.215 307.1875 148.555 307.1875 147.875 307.1875 C147.215 308.5075 146.555 309.8275 145.875 311.1875 C144.26625 310.878125 144.26625 310.878125 142.625 310.5625 C138.71001198 310.1710012 138.08887519 310.3796952 134.875 312.1875 C132.54682036 312.55510731 130.2131615 312.88991581 127.875 313.1875 C126.885 313.5175 125.895 313.8475 124.875 314.1875 C123.31381572 314.25490865 121.7499748 314.27264456 120.1875 314.25 C119.37925781 314.24097656 118.57101562 314.23195313 117.73828125 314.22265625 C116.81595703 314.20525391 116.81595703 314.20525391 115.875 314.1875 C115.875 313.5275 115.875 312.8675 115.875 312.1875 C108.60233209 311.78792479 108.60233209 311.78792479 101.875 314.1875 C101.42898438 314.82042969 100.98296875 315.45335937 100.5234375 316.10546875 C98.65911362 318.46017165 97.03996291 319.40419373 94.375 320.75 C91.97482219 321.97009039 90.1307138 322.92315971 88.25390625 324.86328125 C87.79886719 325.30027344 87.34382813 325.73726563 86.875 326.1875 C84.3125 325.8125 84.3125 325.8125 81.875 325.1875 C81.215 325.5175 80.555 325.8475 79.875 326.1875 C80.535 326.8475 81.195 327.5075 81.875 328.1875 C75.25 328.3125 75.25 328.3125 71.875 327.1875 C69.74722271 327.24925607 67.62108416 327.38291164 65.5 327.5625 C64.37851562 327.65273438 63.25703125 327.74296875 62.1015625 327.8359375 C59.30235111 328.14093632 56.63042601 328.62883974 53.875 329.1875 C52.885 329.1875 51.895 329.1875 50.875 329.1875 C50.545 328.5275 50.215 327.8675 49.875 327.1875 C49.215 327.1875 48.555 327.1875 47.875 327.1875 C47.545 327.8475 47.215 328.5075 46.875 329.1875 C45 328.5 45 328.5 42.875 327.1875 C42.4728125 326.011875 42.4728125 326.011875 42.0625 324.8125 C40.36588029 321.06207749 37.47590291 319.80529696 33.875 318.1875 C31.8937415 317.46704236 29.89830411 316.77968657 27.875 316.1875 C27.875 315.5275 27.875 314.8675 27.875 314.1875 C26.76125 313.8471875 26.76125 313.8471875 25.625 313.5 C22.2909936 311.90876967 20.86243641 310.27906776 18.875 307.1875 C18.875 305.8675 18.875 304.5475 18.875 303.1875 C17.885 303.1875 16.895 303.1875 15.875 303.1875 C15.4728125 304.05375 15.4728125 304.05375 15.0625 304.9375 C12.91157512 309.01293661 10.55840895 311.47732204 6.875 314.1875 C6.27300781 314.6825 5.67101562 315.1775 5.05078125 315.6875 C0.7946596 319.11381177 -2.93945115 321.0912009 -8.2421875 322.44921875 C-10.49748342 323.1264162 -10.49748342 323.1264162 -12.125 326.1875 C-12.785 326.1875 -13.445 326.1875 -14.125 326.1875 C-14.455 326.8475 -14.785 327.5075 -15.125 328.1875 C-17.435 328.1875 -19.745 328.1875 -22.125 328.1875 C-22.125 327.5275 -22.125 326.8675 -22.125 326.1875 C-24.88141416 326.68506092 -24.88141416 326.68506092 -27.125 328.1875 C-32.05050946 328.42973817 -34.74561713 328.37719143 -39.125 326.1875 C-41.10830173 327.05399466 -41.10830173 327.05399466 -43.125 328.1875 C-46.33964388 328.42859829 -49.04065562 328.10137982 -52.125 327.1875 C-52.125 325.8675 -52.125 324.5475 -52.125 323.1875 C-53.383125 322.919375 -54.64125 322.65125 -55.9375 322.375 C-59.11948801 321.59217463 -61.12744311 320.93414072 -63.125 318.1875 C-63.455 318.8475 -63.785 319.5075 -64.125 320.1875 C-64.785 318.5375 -65.445 316.8875 -66.125 315.1875 C-67.115 315.1875 -68.105 315.1875 -69.125 315.1875 C-70.115 313.7025 -70.115 313.7025 -71.125 312.1875 C-74.04367744 311.74449771 -74.04367744 311.74449771 -77.375 311.875 C-78.49390625 311.87886719 -79.6128125 311.88273437 -80.765625 311.88671875 C-84.12020703 312.0495747 -84.12020703 312.0495747 -87.1171875 313.23046875 C-90.67965069 314.36397976 -93.29631198 314.19042735 -97 313.8125 C-98.15242188 313.70164062 -99.30484375 313.59078125 -100.4921875 313.4765625 C-101.79542969 313.33347656 -101.79542969 313.33347656 -103.125 313.1875 C-103.125 312.5275 -103.125 311.8675 -103.125 311.1875 C-103.888125 311.043125 -104.65125 310.89875 -105.4375 310.75 C-108.125 310.1875 -108.125 310.1875 -111.125 309.1875 C-111.455 309.8475 -111.785 310.5075 -112.125 311.1875 C-115 311.3125 -115 311.3125 -118.125 311.1875 C-118.785 310.5275 -119.445 309.8675 -120.125 309.1875 C-119.465 308.1975 -118.805 307.2075 -118.125 306.1875 C-118.785 305.8575 -119.445 305.5275 -120.125 305.1875 C-120.125 304.5275 -120.125 303.8675 -120.125 303.1875 C-121.115 303.5175 -122.105 303.8475 -123.125 304.1875 C-123.41375 303.115 -123.7025 302.0425 -124 300.9375 C-125.18129619 296.87420746 -125.18129619 296.87420746 -127.125 293.1875 C-128.115 292.8575 -129.105 292.5275 -130.125 292.1875 C-130.599375 291.506875 -131.07375 290.82625 -131.5625 290.125 C-132.078125 289.485625 -132.59375 288.84625 -133.125 288.1875 C-134.445 288.1875 -135.765 288.1875 -137.125 288.1875 C-137.125 287.5275 -137.125 286.8675 -137.125 286.1875 C-138.115 286.1875 -139.105 286.1875 -140.125 286.1875 C-140.455 284.8675 -140.785 283.5475 -141.125 282.1875 C-142.5790625 281.878125 -142.5790625 281.878125 -144.0625 281.5625 C-153.78173266 278.72119206 -161.47923479 271.21011474 -166.62890625 262.703125 C-171.09503378 254.11749476 -173.39766514 246.59659638 -173.25 236.9375 C-173.39447203 228.31537554 -175.50687132 223.82602669 -180.828125 217.19140625 C-189.11790194 206.34984423 -190.70276614 192.41457572 -189.125 179.1875 C-187.5625542 172.66937433 -184.80456718 166.50968419 -180.87890625 161.08203125 C-178.89809132 158.38129361 -178.89809132 158.38129361 -179.13671875 155.58984375 C-179.35972656 154.77644531 -179.58273438 153.96304688 -179.8125 153.125 C-180.02261719 152.30902344 -180.23273438 151.49304688 -180.44921875 150.65234375 C-180.67222656 149.83894531 -180.89523438 149.02554688 -181.125 148.1875 C-184.24526903 134.83968247 -181.90135157 121.17859478 -175.0625 109.375 C-171.0950674 103.56184876 -165.95040614 99.10008621 -160.125 95.1875 C-159.465 95.1875 -158.805 95.1875 -158.125 95.1875 C-158.14820313 94.28128906 -158.17140625 93.37507813 -158.1953125 92.44140625 C-158.41013135 77.94113407 -155.80610607 67.83365268 -145.87890625 56.84375 C-139.81182055 51.11447531 -132.83502207 47.22850472 -125.125 44.1875 C-123.7946875 43.5996875 -123.7946875 43.5996875 -122.4375 43 C-120.125 42.1875 -120.125 42.1875 -117.16015625 41.953125 C-113.98773422 41.49730582 -113.98773422 41.49730582 -112.5078125 38.96484375 C-112.09273438 38.02769531 -111.67765625 37.09054688 -111.25 36.125 C-106.48937007 26.60374014 -99.51575049 20.98910545 -90.125 16.1875 C-89.08472656 15.63191406 -88.04445313 15.07632813 -86.97265625 14.50390625 C-81.53831472 12.21603304 -75.60767252 13.20124871 -69.86328125 13.65625 C-64.69098452 13.91756873 -64.69098452 13.91756873 -60.14746094 11.76074219 C-58.97366155 10.54257461 -57.83519038 9.28938378 -56.734375 8.00488281 C-43.3707641 -7.08594236 -16.87818698 -8.79005768 0 0 Z " fill="#EAACB9" transform="translate(265.125,166.8125)"/>
<path d="M0 0 C0.68964844 0.34353516 1.37929688 0.68707031 2.08984375 1.04101562 C7.83057599 3.96626446 12.39450144 7.54105705 16.875 12.1875 C17.12378906 11.59839844 17.37257813 11.00929687 17.62890625 10.40234375 C21.74267873 3.09040331 31.27739323 -1.12838199 38.875 -3.8125 C51.91429604 -6.57148851 66.99730399 -5.74693232 78.56640625 1.31640625 C86.68385751 6.6654846 86.68385751 6.6654846 89.6328125 10.43359375 C93.23775568 13.25348833 97.11416022 12.74674114 101.5625 12.75 C115.59383433 12.82357254 126.33251018 17.22996725 136.60546875 26.80859375 C140.07381773 30.44409208 143.00839283 34.43808557 144.53125 39.26953125 C146.67152773 42.3244044 149.92983721 42.67481823 153.375 43.5625 C166.33135446 47.30464663 177.12261834 54.33966632 184.6171875 65.8671875 C186.79863199 69.89134287 187.875 72.54796352 187.875 77.1875 C188.535 77.1875 189.195 77.1875 189.875 77.1875 C190.205 78.5075 190.535 79.8275 190.875 81.1875 C191.865 79.8675 192.855 78.5475 193.875 77.1875 C194.0049639 82.77594765 194.0049639 82.77594765 193.125 85.5625 C192.72678716 89.74373477 194.5378473 92.7892661 196.875 96.1875 C198.37841361 97.61644822 198.37841361 97.61644822 200 98.8125 C203.39397907 101.61622184 203.55464955 103.06800659 204.875 107.1875 C206.480728 110.60475063 208.27048992 113.93139605 210.04101562 117.265625 C212.10096851 121.25606977 213.41400192 124.64844193 213.875 129.1875 C214.535 129.1875 215.195 129.1875 215.875 129.1875 C217.20354177 135.1055497 216.53964729 137.96479131 213.875 143.1875 C214.535 143.1875 215.195 143.1875 215.875 143.1875 C215.73269192 144.60452513 215.58599254 146.0211096 215.4375 147.4375 C215.35628906 148.22640625 215.27507812 149.0153125 215.19140625 149.828125 C214.875 152.1875 214.875 152.1875 214.28125 154.265625 C213.61416029 157.42147248 214.95440304 160.1549453 215.875 163.1875 C215.875 164.5075 215.875 165.8275 215.875 167.1875 C216.865 166.8575 217.855 166.5275 218.875 166.1875 C218.83375 167.074375 218.7925 167.96125 218.75 168.875 C218.87710421 172.24326152 219.60165037 174.11648032 220.875 177.1875 C221.019375 178.404375 221.16375 179.62125 221.3125 180.875 C221.498125 181.968125 221.68375 183.06125 221.875 184.1875 C222.865 184.8475 223.855 185.5075 224.875 186.1875 C224.5936941 188.64743028 224.30047269 191.10490248 224 193.5625 C223.92136719 194.26117188 223.84273438 194.95984375 223.76171875 195.6796875 C223.1015625 200.9609375 223.1015625 200.9609375 220.875 203.1875 C220.04948242 205.17845651 220.04948242 205.17845651 219.375 207.4375 C218.98441406 208.6440625 218.98441406 208.6440625 218.5859375 209.875 C218.019361 211.71793014 217.50124345 213.57573862 217 215.4375 C215.59559434 218.87049162 213.54586308 220.64692293 210.875 223.1875 C206.29316173 229.89662032 206.86165102 235.50155057 207.1328125 243.4609375 C206.85548063 247.46964363 205.83887251 249.7294853 203.875 253.1875 C203.17592586 255.92322585 203.17592586 255.92322585 202.875 258.1875 C202.215 258.1875 201.555 258.1875 200.875 258.1875 C200.875 259.8375 200.875 261.4875 200.875 263.1875 C200.215 263.5175 199.555 263.8475 198.875 264.1875 C198.483125 265.05375 198.09125 265.92 197.6875 266.8125 C193.60987837 274.4053127 186.28496245 279.97025449 178.875 284.1875 C177.21990239 284.57420505 175.55168913 284.90892783 173.875 285.1875 C170.70109546 286.23181698 167.71582665 287.41567464 164.875 289.1875 C163.96611938 291.64798456 163.96611938 291.64798456 163.875 294.1875 C162.58144173 295.55945574 161.25201298 296.89932656 159.875 298.1875 C159.875 298.8475 159.875 299.5075 159.875 300.1875 C157.00459018 303.60991171 153.94939207 305.41602519 149.875 307.1875 C149.215 307.1875 148.555 307.1875 147.875 307.1875 C147.215 308.5075 146.555 309.8275 145.875 311.1875 C144.26625 310.878125 144.26625 310.878125 142.625 310.5625 C138.71001198 310.1710012 138.08887519 310.3796952 134.875 312.1875 C132.54682036 312.55510731 130.2131615 312.88991581 127.875 313.1875 C126.885 313.5175 125.895 313.8475 124.875 314.1875 C123.31381572 314.25490865 121.7499748 314.27264456 120.1875 314.25 C119.37925781 314.24097656 118.57101562 314.23195313 117.73828125 314.22265625 C116.81595703 314.20525391 116.81595703 314.20525391 115.875 314.1875 C115.875 313.5275 115.875 312.8675 115.875 312.1875 C108.60233209 311.78792479 108.60233209 311.78792479 101.875 314.1875 C101.42898438 314.82042969 100.98296875 315.45335937 100.5234375 316.10546875 C98.65911362 318.46017165 97.03996291 319.40419373 94.375 320.75 C91.97482219 321.97009039 90.1307138 322.92315971 88.25390625 324.86328125 C87.79886719 325.30027344 87.34382813 325.73726563 86.875 326.1875 C84.3125 325.8125 84.3125 325.8125 81.875 325.1875 C81.215 325.5175 80.555 325.8475 79.875 326.1875 C80.535 326.8475 81.195 327.5075 81.875 328.1875 C75.25 328.3125 75.25 328.3125 71.875 327.1875 C69.74722271 327.24925607 67.62108416 327.38291164 65.5 327.5625 C64.37851562 327.65273438 63.25703125 327.74296875 62.1015625 327.8359375 C59.30235111 328.14093632 56.63042601 328.62883974 53.875 329.1875 C52.885 329.1875 51.895 329.1875 50.875 329.1875 C50.545 328.5275 50.215 327.8675 49.875 327.1875 C49.215 327.1875 48.555 327.1875 47.875 327.1875 C47.545 327.8475 47.215 328.5075 46.875 329.1875 C45 328.5 45 328.5 42.875 327.1875 C42.4728125 326.011875 42.4728125 326.011875 42.0625 324.8125 C40.36588029 321.06207749 37.47590291 319.80529696 33.875 318.1875 C31.8937415 317.46704236 29.89830411 316.77968657 27.875 316.1875 C27.875 315.5275 27.875 314.8675 27.875 314.1875 C26.76125 313.8471875 26.76125 313.8471875 25.625 313.5 C22.2909936 311.90876967 20.86243641 310.27906776 18.875 307.1875 C18.875 305.8675 18.875 304.5475 18.875 303.1875 C17.885 303.1875 16.895 303.1875 15.875 303.1875 C15.4728125 304.05375 15.4728125 304.05375 15.0625 304.9375 C12.91157512 309.01293661 10.55840895 311.47732204 6.875 314.1875 C6.27300781 314.6825 5.67101562 315.1775 5.05078125 315.6875 C0.7946596 319.11381177 -2.93945115 321.0912009 -8.2421875 322.44921875 C-10.49748342 323.1264162 -10.49748342 323.1264162 -12.125 326.1875 C-12.785 326.1875 -13.445 326.1875 -14.125 326.1875 C-14.455 326.8475 -14.785 327.5075 -15.125 328.1875 C-17.435 328.1875 -19.745 328.1875 -22.125 328.1875 C-22.125 327.5275 -22.125 326.8675 -22.125 326.1875 C-24.88141416 326.68506092 -24.88141416 326.68506092 -27.125 328.1875 C-32.05050946 328.42973817 -34.74561713 328.37719143 -39.125 326.1875 C-41.10830173 327.05399466 -41.10830173 327.05399466 -43.125 328.1875 C-46.33964388 328.42859829 -49.04065562 328.10137982 -52.125 327.1875 C-52.125 325.8675 -52.125 324.5475 -52.125 323.1875 C-53.383125 322.919375 -54.64125 322.65125 -55.9375 322.375 C-59.11948801 321.59217463 -61.12744311 320.93414072 -63.125 318.1875 C-63.455 318.8475 -63.785 319.5075 -64.125 320.1875 C-64.785 318.5375 -65.445 316.8875 -66.125 315.1875 C-67.115 315.1875 -68.105 315.1875 -69.125 315.1875 C-70.115 313.7025 -70.115 313.7025 -71.125 312.1875 C-74.04367744 311.74449771 -74.04367744 311.74449771 -77.375 311.875 C-78.49390625 311.87886719 -79.6128125 311.88273437 -80.765625 311.88671875 C-84.12020703 312.0495747 -84.12020703 312.0495747 -87.1171875 313.23046875 C-90.67965069 314.36397976 -93.29631198 314.19042735 -97 313.8125 C-98.15242188 313.70164062 -99.30484375 313.59078125 -100.4921875 313.4765625 C-101.79542969 313.33347656 -101.79542969 313.33347656 -103.125 313.1875 C-103.125 312.5275 -103.125 311.8675 -103.125 311.1875 C-103.888125 311.043125 -104.65125 310.89875 -105.4375 310.75 C-108.125 310.1875 -108.125 310.1875 -111.125 309.1875 C-111.455 309.8475 -111.785 310.5075 -112.125 311.1875 C-115 311.3125 -115 311.3125 -118.125 311.1875 C-118.785 310.5275 -119.445 309.8675 -120.125 309.1875 C-119.465 308.1975 -118.805 307.2075 -118.125 306.1875 C-118.785 305.8575 -119.445 305.5275 -120.125 305.1875 C-120.125 304.5275 -120.125 303.8675 -120.125 303.1875 C-121.115 303.5175 -122.105 303.8475 -123.125 304.1875 C-123.41375 303.115 -123.7025 302.0425 -124 300.9375 C-125.18129619 296.87420746 -125.18129619 296.87420746 -127.125 293.1875 C-128.115 292.8575 -129.105 292.5275 -130.125 292.1875 C-130.599375 291.506875 -131.07375 290.82625 -131.5625 290.125 C-132.078125 289.485625 -132.59375 288.84625 -133.125 288.1875 C-134.445 288.1875 -135.765 288.1875 -137.125 288.1875 C-137.125 287.5275 -137.125 286.8675 -137.125 286.1875 C-138.115 286.1875 -139.105 286.1875 -140.125 286.1875 C-140.455 284.8675 -140.785 283.5475 -141.125 282.1875 C-142.5790625 281.878125 -142.5790625 281.878125 -144.0625 281.5625 C-153.78173266 278.72119206 -161.47923479 271.21011474 -166.62890625 262.703125 C-171.09503378 254.11749476 -173.39766514 246.59659638 -173.25 236.9375 C-173.39447203 228.31537554 -175.50687132 223.82602669 -180.828125 217.19140625 C-189.11790194 206.34984423 -190.70276614 192.41457572 -189.125 179.1875 C-187.5625542 172.66937433 -184.80456718 166.50968419 -180.87890625 161.08203125 C-178.89809132 158.38129361 -178.89809132 158.38129361 -179.13671875 155.58984375 C-179.35972656 154.77644531 -179.58273438 153.96304688 -179.8125 153.125 C-180.02261719 152.30902344 -180.23273438 151.49304688 -180.44921875 150.65234375 C-180.67222656 149.83894531 -180.89523438 149.02554688 -181.125 148.1875 C-184.24526903 134.83968247 -181.90135157 121.17859478 -175.0625 109.375 C-171.0950674 103.56184876 -165.95040614 99.10008621 -160.125 95.1875 C-159.465 95.1875 -158.805 95.1875 -158.125 95.1875 C-158.14820313 94.28128906 -158.17140625 93.37507813 -158.1953125 92.44140625 C-158.41013135 77.94113407 -155.80610607 67.83365268 -145.87890625 56.84375 C-139.81182055 51.11447531 -132.83502207 47.22850472 -125.125 44.1875 C-123.7946875 43.5996875 -123.7946875 43.5996875 -122.4375 43 C-120.125 42.1875 -120.125 42.1875 -117.16015625 41.953125 C-113.98773422 41.49730582 -113.98773422 41.49730582 -112.5078125 38.96484375 C-112.09273438 38.02769531 -111.67765625 37.09054688 -111.25 36.125 C-106.48937007 26.60374014 -99.51575049 20.98910545 -90.125 16.1875 C-89.08472656 15.63191406 -88.04445313 15.07632813 -86.97265625 14.50390625 C-81.53831472 12.21603304 -75.60767252 13.20124871 -69.86328125 13.65625 C-64.69098452 13.91756873 -64.69098452 13.91756873 -60.14746094 11.76074219 C-58.97366155 10.54257461 -57.83519038 9.28938378 -56.734375 8.00488281 C-43.3707641 -7.08594236 -16.87818698 -8.79005768 0 0 Z M-49.125 13.1875 C-50.115 13.8475 -51.105 14.5075 -52.125 15.1875 C-52.125 16.5075 -52.125 17.8275 -52.125 19.1875 C-49.81666478 20.85463099 -47.57714378 22.00664249 -44.9375 23.0625 C-42.39014089 24.64361945 -42.13963713 26.39724789 -41.125 29.1875 C-39.81068305 31.20004782 -38.47778115 33.20060269 -37.125 35.1875 C-36.8878125 35.89390625 -36.650625 36.6003125 -36.40625 37.328125 C-35.20854366 39.53101206 -35.20854366 39.53101206 -32.15625 39.76171875 C-30.40828125 39.81779297 -30.40828125 39.81779297 -28.625 39.875 C-22.25689448 40.12155276 -22.25689448 40.12155276 -20.125 41.1875 C-20.455 42.8375 -20.785 44.4875 -21.125 46.1875 C-22.15238281 46.25066406 -23.17976562 46.31382812 -24.23828125 46.37890625 C-34.6685969 47.21928736 -42.28087699 49.38083932 -49.953125 57.00390625 C-54.5692787 62.58758712 -59.125 70.86335953 -59.125 78.1875 C-63.16709788 77.15106465 -66.13793978 75.5764856 -69.5 73.1875 C-77.18554632 67.94444843 -84.92789604 67.37337185 -94.125 68.1875 C-97.8937027 69.24291916 -97.8937027 69.24291916 -101.125 71.1875 C-101.79273438 71.55101562 -102.46046875 71.91453125 -103.1484375 72.2890625 C-110.3197538 76.4212336 -114.32671913 81.38176916 -117.125 89.1875 C-117.125 90.1775 -117.125 91.1675 -117.125 92.1875 C-111.845 92.5175 -106.565 92.8475 -101.125 93.1875 C-101.125 94.8375 -101.125 96.4875 -101.125 98.1875 C-102.98263533 100.04513533 -105.62932099 99.3244481 -108.10595703 99.37524414 C-118.92076809 99.64932254 -126.21997384 101.4152075 -134.4375 108.8125 C-144.19098212 119.53343277 -144.02704652 131.39526657 -144.125 145.1875 C-144.8984375 145.33445312 -145.671875 145.48140625 -146.46875 145.6328125 C-153.78171514 147.2076342 -158.53858694 149.28117201 -164.125 154.1875 C-164.71796875 154.60515625 -165.3109375 155.0228125 -165.921875 155.453125 C-173.6742391 161.14733934 -178.04168091 171.01097545 -180.125 180.1875 C-180.40606154 182.98616255 -180.45961975 185.75108033 -180.4375 188.5625 C-180.43186035 189.31345947 -180.4262207 190.06441895 -180.42041016 190.83813477 C-180.17961147 201.83262127 -175.88165209 210.98836865 -168.4375 219.125 C-167.674375 219.805625 -166.91125 220.48625 -166.125 221.1875 C-165.66222656 221.67992187 -165.19945312 222.17234375 -164.72265625 222.6796875 C-159.92518225 227.2073769 -154.05919121 228.47431637 -147.625 228.625 C-140.26503036 228.39257991 -131.72743746 226.78993746 -126.3125 221.375 C-124.92048431 219.24505189 -124.92048431 219.24505189 -125.1875 216.75 C-126.00324989 214.06272239 -126.00324989 214.06272239 -128.07421875 211.890625 C-134.48495589 203.4406629 -133.91407078 190.36870492 -133.125 180.1875 C-132.54589638 176.82387316 -131.91783554 175.17555924 -130.125 172.1875 C-126.9375 170.6875 -126.9375 170.6875 -124.125 170.1875 C-123.97024558 173.43734282 -124.02090458 175.8921499 -125.109375 178.98046875 C-127.73176377 187.26116559 -126.88833211 196.60501791 -123.59765625 204.578125 C-119.22354961 212.32853145 -112.6189531 219.24402824 -104.125 222.1875 C-101.42506096 222.54726806 -101.42506096 222.54726806 -98.60546875 222.6015625 C-97.0730957 222.65957031 -97.0730957 222.65957031 -95.50976562 222.71875 C-94.45466797 222.7496875 -93.39957031 222.780625 -92.3125 222.8125 C-90.70084961 222.87050781 -90.70084961 222.87050781 -89.05664062 222.9296875 C-86.41292912 223.02368613 -83.7692195 223.10934573 -81.125 223.1875 C-81.33721191 223.82526367 -81.54942383 224.46302734 -81.76806641 225.12011719 C-83.42742133 230.32467855 -84.53776535 234.92375929 -84.5 240.4375 C-84.50773437 241.57703125 -84.51546875 242.7165625 -84.5234375 243.890625 C-83.7665443 250.15354522 -80.46729435 254.74651714 -76.125 259.1875 C-70.02483379 262.92229564 -64.12940842 262.49804027 -57.125 262.1875 C-57.29 261.32125 -57.455 260.455 -57.625 259.5625 C-58.88837637 250.44017948 -59.15827365 241.59015344 -55.125 233.1875 C-53.475 233.5175 -51.825 233.8475 -50.125 234.1875 C-50.29 235.239375 -50.455 236.29125 -50.625 237.375 C-52.29685485 250.59655374 -52.29685485 250.59655374 -46.9609375 262.31640625 C-41.78283334 267.5936656 -36.28221999 269.7816175 -29.125 271.1875 C-29.125 273.1675 -29.125 275.1475 -29.125 277.1875 C-36.77256571 278.05326216 -41.8032419 275.38498397 -48.125 271.1875 C-48.87330078 270.31544922 -48.87330078 270.31544922 -49.63671875 269.42578125 C-50.12785156 269.01714844 -50.61898437 268.60851562 -51.125 268.1875 C-53.49528449 268.40384026 -53.49528449 268.40384026 -56.125 269.1875 C-57.20136719 269.31769531 -58.27773437 269.44789063 -59.38671875 269.58203125 C-61.08248047 269.78892578 -61.08248047 269.78892578 -62.8125 270 C-63.95074219 270.13019531 -65.08898437 270.26039063 -66.26171875 270.39453125 C-69.1555172 270.90147791 -69.1555172 270.90147791 -70.49609375 272.84765625 C-72.58599187 280.62311573 -71.97209184 289.51058664 -68.58984375 296.8046875 C-62.13481129 307.30487363 -53.10290418 314.30692427 -41.125 317.1875 C-28.06445722 318.60866896 -15.04515696 315.95460458 -4.30859375 308.13671875 C5.88403457 299.76207292 5.88403457 299.76207292 11.875 288.1875 C12.09525691 285.46301778 12.01925963 282.92843301 11.875 280.1875 C9.30865172 281.41934718 6.87541934 282.7861838 4.4375 284.25 C-1.57609039 287.66277598 -7.35950846 287.30573189 -14.125 287.1875 C-14.455 285.2075 -14.785 283.2275 -15.125 281.1875 C-14.40054688 281.15011719 -13.67609375 281.11273438 -12.9296875 281.07421875 C-7.26308848 280.68889002 -2.97596382 280.202964 1.875 277.1875 C1.875 276.5275 1.875 275.8675 1.875 275.1875 C2.78378906 275.04634766 2.78378906 275.04634766 3.7109375 274.90234375 C7.09283566 273.78521855 8.01914154 271.56524003 9.76953125 268.59765625 C11.59468253 264.6184395 12.28267505 260.50174737 12.875 256.1875 C14.54111905 256.144779 16.20882885 256.14686168 17.875 256.1875 C19.49660229 257.80910229 19.46381947 259.84597995 19.875 262.0625 C20.40162337 264.88487213 20.9650606 267.45768179 21.875 270.1875 C22.535 270.1875 23.195 270.1875 23.875 270.1875 C24.060625 270.744375 24.24625 271.30125 24.4375 271.875 C27.28128744 276.4497885 30.88278864 278.70250473 36.00390625 279.94921875 C38.95740314 280.44088706 41.89913158 280.86010561 44.875 281.1875 C45.205 283.1675 45.535 285.1475 45.875 287.1875 C41.585 287.5175 37.295 287.8475 32.875 288.1875 C32.875 287.5275 32.875 286.8675 32.875 286.1875 C32.00875 285.94 31.1425 285.6925 30.25 285.4375 C26.69411201 284.12050445 23.99510289 282.31484288 20.875 280.1875 C20.215 280.1875 19.555 280.1875 18.875 280.1875 C19.17568721 289.50880353 22.74616742 296.0716249 29.0625 302.875 C39.00433694 312.07879665 50.73811635 317.11708395 64.3125 317.75 C76.33250977 317.2668571 86.07613746 313.36136254 94.625 304.8125 C101.57201769 296.70764602 103.66007038 288.74030655 102.875 278.1875 C102.36384234 275.76061234 101.6764731 273.54182722 100.875 271.1875 C96.255 270.8575 91.635 270.5275 86.875 270.1875 C86.875 269.5275 86.875 268.8675 86.875 268.1875 C82.63944541 268.56122541 80.60903204 270.14276585 77.47265625 272.91015625 C72.65269686 276.76376682 67.88360541 277.5553738 61.875 277.1875 C61.875 274.8775 61.875 272.5675 61.875 270.1875 C62.535 270.27 63.195 270.3525 63.875 270.4375 C68.1934042 270.07763298 71.38724264 268.7674849 74.875 266.1875 C77.19883823 263.35803542 79.04520906 260.3517563 80.875 257.1875 C81.535 256.1975 82.195 255.2075 82.875 254.1875 C83.38080395 249.36093008 82.97864628 244.48200018 82.3125 239.6875 C81.875 236.1875 81.875 236.1875 82.875 234.1875 C84.525 234.5175 86.175 234.8475 87.875 235.1875 C89.60763631 239.68002735 90.12045609 243.3824129 90.0625 248.1875 C90.05605469 249.363125 90.04960937 250.53875 90.04296875 251.75 C89.88540528 254.97455469 89.47869841 258.01929074 88.875 261.1875 C94.39957118 263.02902373 99.78505661 263.0044855 105.125 260.5625 C110.10126761 257.73732815 112.94510629 254.40153263 115.1875 249.0625 C116.54232697 241.42620252 116.55064227 234.5009222 113.875 227.1875 C114.205 225.5375 114.535 223.8875 114.875 222.1875 C122.135 222.1875 129.395 222.1875 136.875 222.1875 C136.875 221.5275 136.875 220.8675 136.875 220.1875 C137.74125 220.125625 138.6075 220.06375 139.5 220 C147.15992271 218.15594453 150.36939324 212.32137737 154.359375 206.00390625 C157.22601411 200.67698151 158.15148397 196.22584574 158.125 190.1875 C158.13015625 189.011875 158.1353125 187.83625 158.140625 186.625 C157.87255501 183.15585901 157.04112831 180.44715001 155.875 177.1875 C155.75 173.8125 155.75 173.8125 155.875 171.1875 C157.525 171.1875 159.175 171.1875 160.875 171.1875 C162.75891785 174.45295761 163.36787967 177.46861761 163.875 181.1875 C164.535 181.1875 165.195 181.1875 165.875 181.1875 C165.55875037 194.53323419 164.6645469 206.44472045 155.875 217.1875 C157.24759316 220.47892237 158.57760309 221.98169953 161.625 223.8125 C162.27984375 224.21726562 162.9346875 224.62203125 163.609375 225.0390625 C170.81546711 228.69180574 177.92717765 229.18954226 185.875 228.1875 C191.10738898 226.19390949 196.21818214 223.53518248 199.875 219.1875 C199.875 218.5275 199.875 217.8675 199.875 217.1875 C200.865 216.8575 201.855 216.5275 202.875 216.1875 C204.49001163 214.00781823 204.49001163 214.00781823 205.9375 211.375 C206.69740234 210.06595703 206.69740234 210.06595703 207.47265625 208.73046875 C208.16681641 207.47169922 208.16681641 207.47169922 208.875 206.1875 C209.24496094 205.54425781 209.61492187 204.90101563 209.99609375 204.23828125 C213.81221527 195.33399771 213.1138391 182.50474408 209.91015625 173.51953125 C204.70640791 161.79636989 197.05390662 152.85906265 185.0625 148.0625 C180.09906243 146.00093672 180.09906243 146.00093672 174.875 145.1875 C174.89820313 144.55585938 174.92140625 143.92421875 174.9453125 143.2734375 C175.20747454 130.27769081 174.54779948 117.91056265 165.25 108.1875 C162.9689085 105.72904472 162.9689085 105.72904472 159.875 105.1875 C159.875 104.5275 159.875 103.8675 159.875 103.1875 C153.77737981 100.52328751 148.98970109 99.78992399 142.375 100 C141.55257813 100.01353516 140.73015625 100.02707031 139.8828125 100.04101562 C137.87991779 100.07594984 135.87736644 100.12973943 133.875 100.1875 C133.25 97.8125 133.25 97.8125 132.875 95.1875 C135.64542109 92.41707891 137.64033805 92.78953894 141.5 92.5625 C143.28277344 92.45035156 143.28277344 92.45035156 145.1015625 92.3359375 C146.01679688 92.28695312 146.93203125 92.23796875 147.875 92.1875 C147.215 89.2175 146.555 86.2475 145.875 83.1875 C145.215 83.1875 144.555 83.1875 143.875 83.1875 C143.7821875 82.61128906 143.689375 82.03507812 143.59375 81.44140625 C141.99767051 76.43630916 137.27803326 72.58236413 132.8359375 70.00390625 C124.6538633 66.80155886 114.62315255 66.8053803 106.4375 69.875 C103.34809809 71.28295694 100.75004732 72.93531773 98.0625 75 C94.875 77.1875 94.875 77.1875 92.17578125 76.82421875 C91.41652344 76.61410156 90.65726562 76.40398437 89.875 76.1875 C89.77703125 75.5584375 89.6790625 74.929375 89.578125 74.28125 C87.85961863 64.44428251 85.36548068 58.58931427 77.11328125 52.66015625 C68.49809962 46.99187793 60.90829956 47.04138399 50.875 47.1875 C51.535 44.8775 52.195 42.5675 52.875 40.1875 C53.82761719 40.23132813 54.78023437 40.27515625 55.76171875 40.3203125 C59.6817077 40.31225497 63.0703677 40.15595186 66.875 39.1875 C69.02907531 36.75547949 69.93280061 34.69111184 70.98046875 31.6328125 C71.91844336 29.06874216 72.92534172 28.02182638 74.875 26.1875 C74.875 25.5275 74.875 24.8675 74.875 24.1875 C75.7103125 23.81625 75.7103125 23.81625 76.5625 23.4375 C79.27471127 21.97143985 81.51087365 20.15760529 83.875 18.1875 C82.21159321 13.19727963 78.23940258 10.89698934 73.75 8.5625 C61.22351767 3.74462218 47.02470155 1.70057976 34.3125 6.9375 C30.2275562 8.8540661 27.10646077 11.0388972 23.875 14.1875 C23.875 14.8475 23.875 15.5075 23.875 16.1875 C23.215 16.1875 22.555 16.1875 21.875 16.1875 C19.4979736 19.7530396 19.63159077 21.26621361 19.64794922 25.49487305 C19.64810028 26.79599533 19.64825134 28.09711761 19.64840698 29.43766785 C19.65862031 30.85818637 19.6690523 32.27870333 19.6796875 33.69921875 C19.68341817 35.15224513 19.68626489 36.60527403 19.68826294 38.05830383 C19.69589519 41.88061482 19.71554008 45.70277354 19.7376709 49.52502441 C19.75813817 53.4261672 19.76726654 57.32733461 19.77734375 61.22851562 C19.79878643 68.88157979 19.83291736 76.53451855 19.875 84.1875 C22.58123725 82.85872875 25.06153389 81.43304009 27.5625 79.75 C34.87141702 75.24194534 41.16375879 73.91779804 49.6875 73.8125 C50.4292749 73.79856201 51.1710498 73.78462402 51.93530273 73.77026367 C56.1855624 73.80748305 58.80388104 74.14056307 61.875 77.1875 C61.545 78.8375 61.215 80.4875 60.875 82.1875 C59.8128125 82.09210938 58.750625 81.99671875 57.65625 81.8984375 C45.70240317 80.9158327 37.63763067 81.31964978 27.875 89.1875 C22.32495019 94.34703458 20.17190168 99.21381666 19.5965271 106.91453552 C19.57334469 108.2624716 19.56040071 109.61061151 19.55615234 110.95874023 C19.54610672 111.70103378 19.5360611 112.44332733 19.52571106 113.20811462 C19.49506497 115.63743383 19.47789621 118.0666438 19.4609375 120.49609375 C19.44221086 122.19003731 19.42263634 123.88397169 19.4022522 125.57789612 C19.35108295 130.01816375 19.31137618 134.45846158 19.27410889 138.89886475 C19.23397353 143.43720882 19.18292482 147.97542894 19.1328125 152.51367188 C19.03623345 161.40486065 18.9517714 170.29611966 18.875 179.1875 C16.8835944 179.56883299 14.88220923 179.90075582 12.875 180.1875 C11.18418961 178.49668961 11.74537274 176.39539628 11.73155212 174.13850403 C11.7323452 173.05468697 11.7323452 173.05468697 11.7331543 171.94897461 C11.72967987 171.19114685 11.72620544 170.43331909 11.72262573 169.65252686 C11.71525403 168.0002968 11.70991622 166.34805675 11.70633507 164.69581413 C11.69918223 162.07647011 11.68352197 159.45731482 11.66499329 156.83802795 C11.61248744 149.38822111 11.56459914 141.93851301 11.54907227 134.48852539 C11.53895962 129.93545192 11.50954462 125.3828462 11.46775246 120.82995796 C11.4554761 119.0977591 11.45031503 117.36549402 11.45255089 115.6332531 C11.45491829 113.19892898 11.43262781 110.76593122 11.4050293 108.33178711 C11.41163071 107.62341202 11.41823212 106.91503693 11.42503357 106.18519592 C11.30772777 99.84111258 9.03655787 94.91892313 5.15625 90.015625 C-5.29161369 80.75918436 -16.90301852 80.62352923 -30.125 81.1875 C-30.125 79.5375 -30.125 77.8875 -30.125 76.1875 C-23.900889 72.19197094 -14.01564553 73.66173709 -6.9453125 74.6171875 C-0.79506255 76.02843466 3.42738736 78.66401796 8.1953125 82.76171875 C9.63485853 84.2953556 9.63485853 84.2953556 10.875 84.1875 C11.01445552 75.98123328 11.12084865 67.77546737 11.18587303 59.56830597 C11.21709314 55.75669796 11.25939036 51.94590476 11.32763672 48.13476562 C11.39316948 44.45181863 11.42877604 40.76965172 11.44426346 37.08616638 C11.45528979 35.68594593 11.47682219 34.28576482 11.50938034 32.88587952 C11.67930374 25.27206618 11.72218749 19.5773204 6.52090454 13.69250488 C-2.27186349 5.65245244 -13.28220131 3.57177546 -24.9609375 3.90625 C-34.28445742 4.73500733 -41.41262496 8.02193538 -49.125 13.1875 Z " fill="#D18D9A" transform="translate(265.125,166.8125)"/>
<path d="M0 0 C1.85309499 2.1182533 3.38218697 4.11605787 4.9375 6.4375 C5.60434814 7.40212158 5.60434814 7.40212158 6.28466797 8.38623047 C9.0121867 12.38077738 11.47803694 16.44455432 13.73046875 20.7265625 C16.49710459 25.68096884 19.81885615 30.30594325 23 35 C27.35365636 41.48083205 31.62670071 48.01223763 35.875 54.5625 C36.46796875 55.47580078 37.0609375 56.38910156 37.671875 57.33007812 C39.11507285 59.55306837 40.55777307 61.77637977 42 64 C45.39408665 63.37489252 47.81213741 62.73980378 50.6875 60.8125 C51.37972656 60.36261719 52.07195312 59.91273437 52.78515625 59.44921875 C53.88150391 58.73185547 53.88150391 58.73185547 55 58 C61.7635715 53.7301279 68.70240635 50.08365104 75.8984375 46.61328125 C78.52999802 45.24447206 80.68772538 43.83140335 83 42 C87.22549895 39.51981583 90.09744224 38.6498173 95 39 C95.12109311 46.07721931 94.85373239 52.97195301 94 60 C94.33 60 94.66 60 95 60 C95.20086443 63.71599191 95.1519437 64.77208445 93 68 C90.90632655 74.39626844 89.81086134 80.32744886 90.08984375 87.03515625 C89.94866056 90.12277118 88.52789082 92.37202778 87 95 C86.27437769 97.32199141 85.92189265 99.52443508 85.5625 101.9375 C85.01691822 104.90788968 84.23573083 107.25393148 83 110 C82.5875 110.94875 82.175 111.8975 81.75 112.875 C79.60703517 116.7017229 76.94856932 119.77470411 74 123 C73.01 122.67 72.02 122.34 71 122 C68.5799686 122.28307895 68.5799686 122.28307895 65.9375 122.875 C61.34840724 123.78794949 56.85800059 124.34873143 52.19140625 124.65625 C49.97848726 124.88198871 49.97848726 124.88198871 48.12890625 125.98828125 C45.21843944 127.37142052 42.57843504 127.46694747 39.375 127.6875 C38.22773438 127.77386719 37.08046875 127.86023438 35.8984375 127.94921875 C33 128 33 128 31 127 C25.56612292 126.58644829 20.99525332 126.65847501 16 129 C15.34 128.67 14.68 128.34 14 128 C10.45828022 127.83330682 10.45828022 127.83330682 7 128 C6.67 128.33 6.34 128.66 6 129 C3.98125162 129.1007892 1.95875751 129.12964123 -0.0625 129.125 C-1.16722656 129.12757813 -2.27195312 129.13015625 -3.41015625 129.1328125 C-7 129 -7 129 -10.65234375 128.49609375 C-16.25055917 127.74021656 -21.86198844 127.89366379 -27.5 127.9375 C-29.16289062 127.94426758 -29.16289062 127.94426758 -30.859375 127.95117188 C-33.57297399 127.96286842 -36.28645761 127.97925914 -39 128 C-39.33 127.01 -39.66 126.02 -40 125 C-41.90072266 125.03480469 -41.90072266 125.03480469 -43.83984375 125.0703125 C-45.53905655 125.08908833 -47.2382758 125.10728657 -48.9375 125.125 C-49.76830078 125.14175781 -50.59910156 125.15851563 -51.45507812 125.17578125 C-57.27505267 125.22107288 -62.3596123 124.4456695 -68 123 C-67.505 121.515 -67.505 121.515 -67 120 C-67.59167969 119.87882812 -68.18335938 119.75765625 -68.79296875 119.6328125 C-79.81785835 117.29474456 -79.81785835 117.29474456 -82.52758789 114.3269043 C-84.3349908 111.47060234 -84.94625318 108.94288726 -85.68359375 105.64453125 C-85.96936279 104.390354 -86.25513184 103.13617676 -86.54956055 101.84399414 C-86.84563955 100.50018461 -87.14161745 99.1563528 -87.4375 97.8125 C-87.74742747 96.4404416 -88.05838526 95.06861553 -88.37036133 93.69702148 C-88.98141907 91.00542475 -89.58784829 88.31286584 -90.18945312 85.61914062 C-91.16543681 81.26131468 -92.16642767 76.90995228 -93.1875 72.5625 C-93.4865625 71.28375 -93.785625 70.005 -94.09375 68.6875 C-94.8911526 65.44289632 -95.75249284 62.22822445 -96.64672852 59.00976562 C-98.4096509 52.66165324 -99.68994203 46.58873179 -100 40 C-96.35944616 38.65948599 -95.02255823 38.99028336 -91.390625 40.5546875 C-90.00262676 41.31405664 -88.62278313 42.08845878 -87.25 42.875 C-85.74633046 43.70485614 -84.24241645 44.53426944 -82.73828125 45.36328125 C-81.96436035 45.79592285 -81.19043945 46.22856445 -80.39306641 46.67431641 C-76.43992421 48.86423297 -72.43708891 50.9590188 -68.4375 53.0625 C-66.99846301 53.82377487 -65.55963883 54.58545224 -64.12109375 55.34765625 C-62.57615234 56.16556641 -62.57615234 56.16556641 -61 57 C-61 57.66 -61 58.32 -61 59 C-60.484375 59.0825 -59.96875 59.165 -59.4375 59.25 C-56.55460816 60.13704364 -54.26624693 61.54519537 -51.68359375 63.078125 C-49.82731031 64.09455862 -48.09020128 64.66556779 -46 65 C-45.72760498 64.2673291 -45.45520996 63.5346582 -45.17456055 62.77978516 C-44.05411352 60.1280683 -42.78971832 57.92103782 -41.20703125 55.5234375 C-40.66312744 54.69400635 -40.11922363 53.8645752 -39.55883789 53.01000977 C-38.98254639 52.14045654 -38.40625488 51.27090332 -37.8125 50.375 C-36.61938759 48.55885915 -35.42667492 46.74245561 -34.234375 44.92578125 C-33.66654297 44.06291504 -33.09871094 43.20004883 -32.51367188 42.31103516 C-30.83380447 39.74625695 -29.19082699 37.16026909 -27.5625 34.5625 C-24.09757399 29.09522982 -20.51826127 23.70428498 -16.9375 18.3125 C-16.34718994 17.42054932 -15.75687988 16.52859863 -15.14868164 15.60961914 C-13.45036604 13.06036503 -11.7309352 10.52719559 -10 8 C-9.46262207 7.19997559 -8.92524414 6.39995117 -8.37158203 5.57568359 C-7.85837402 4.8430127 -7.34516602 4.1103418 -6.81640625 3.35546875 C-6.3685376 2.70602295 -5.92066895 2.05657715 -5.45922852 1.38745117 C-4 0 -4 0 0 0 Z " fill="#E4CB70" transform="translate(283,25)"/>
<path d="M0 0 C1.85309499 2.1182533 3.38218697 4.11605787 4.9375 6.4375 C5.60434814 7.40212158 5.60434814 7.40212158 6.28466797 8.38623047 C9.0121867 12.38077738 11.47803694 16.44455432 13.73046875 20.7265625 C16.49710459 25.68096884 19.81885615 30.30594325 23 35 C27.35365636 41.48083205 31.62670071 48.01223763 35.875 54.5625 C36.46796875 55.47580078 37.0609375 56.38910156 37.671875 57.33007812 C39.11507285 59.55306837 40.55777307 61.77637977 42 64 C45.39408665 63.37489252 47.81213741 62.73980378 50.6875 60.8125 C51.37972656 60.36261719 52.07195312 59.91273437 52.78515625 59.44921875 C53.88150391 58.73185547 53.88150391 58.73185547 55 58 C61.7635715 53.7301279 68.70240635 50.08365104 75.8984375 46.61328125 C78.52999802 45.24447206 80.68772538 43.83140335 83 42 C87.22549895 39.51981583 90.09744224 38.6498173 95 39 C95.12109311 46.07721931 94.85373239 52.97195301 94 60 C94.33 60 94.66 60 95 60 C95.20086443 63.71599191 95.1519437 64.77208445 93 68 C90.90632655 74.39626844 89.81086134 80.32744886 90.08984375 87.03515625 C89.94866056 90.12277118 88.52789082 92.37202778 87 95 C86.27437769 97.32199141 85.92189265 99.52443508 85.5625 101.9375 C85.01691822 104.90788968 84.23573083 107.25393148 83 110 C82.5875 110.94875 82.175 111.8975 81.75 112.875 C79.60703517 116.7017229 76.94856932 119.77470411 74 123 C73.01 122.67 72.02 122.34 71 122 C68.5799686 122.28307895 68.5799686 122.28307895 65.9375 122.875 C61.34840724 123.78794949 56.85800059 124.34873143 52.19140625 124.65625 C49.97848726 124.88198871 49.97848726 124.88198871 48.12890625 125.98828125 C45.21843944 127.37142052 42.57843504 127.46694747 39.375 127.6875 C38.22773438 127.77386719 37.08046875 127.86023438 35.8984375 127.94921875 C33 128 33 128 31 127 C25.56612292 126.58644829 20.99525332 126.65847501 16 129 C15.34 128.67 14.68 128.34 14 128 C10.45828022 127.83330682 10.45828022 127.83330682 7 128 C6.67 128.33 6.34 128.66 6 129 C3.98125162 129.1007892 1.95875751 129.12964123 -0.0625 129.125 C-1.16722656 129.12757813 -2.27195312 129.13015625 -3.41015625 129.1328125 C-7 129 -7 129 -10.65234375 128.49609375 C-16.25055917 127.74021656 -21.86198844 127.89366379 -27.5 127.9375 C-29.16289062 127.94426758 -29.16289062 127.94426758 -30.859375 127.95117188 C-33.57297399 127.96286842 -36.28645761 127.97925914 -39 128 C-39.33 127.01 -39.66 126.02 -40 125 C-41.90072266 125.03480469 -41.90072266 125.03480469 -43.83984375 125.0703125 C-45.53905655 125.08908833 -47.2382758 125.10728657 -48.9375 125.125 C-49.76830078 125.14175781 -50.59910156 125.15851563 -51.45507812 125.17578125 C-57.27505267 125.22107288 -62.3596123 124.4456695 -68 123 C-67.505 121.515 -67.505 121.515 -67 120 C-67.59167969 119.87882812 -68.18335938 119.75765625 -68.79296875 119.6328125 C-79.81785835 117.29474456 -79.81785835 117.29474456 -82.52758789 114.3269043 C-84.3349908 111.47060234 -84.94625318 108.94288726 -85.68359375 105.64453125 C-85.96936279 104.390354 -86.25513184 103.13617676 -86.54956055 101.84399414 C-86.84563955 100.50018461 -87.14161745 99.1563528 -87.4375 97.8125 C-87.74742747 96.4404416 -88.05838526 95.06861553 -88.37036133 93.69702148 C-88.98141907 91.00542475 -89.58784829 88.31286584 -90.18945312 85.61914062 C-91.16543681 81.26131468 -92.16642767 76.90995228 -93.1875 72.5625 C-93.4865625 71.28375 -93.785625 70.005 -94.09375 68.6875 C-94.8911526 65.44289632 -95.75249284 62.22822445 -96.64672852 59.00976562 C-98.4096509 52.66165324 -99.68994203 46.58873179 -100 40 C-96.35944616 38.65948599 -95.02255823 38.99028336 -91.390625 40.5546875 C-90.00262676 41.31405664 -88.62278313 42.08845878 -87.25 42.875 C-85.74633046 43.70485614 -84.24241645 44.53426944 -82.73828125 45.36328125 C-81.96436035 45.79592285 -81.19043945 46.22856445 -80.39306641 46.67431641 C-76.43992421 48.86423297 -72.43708891 50.9590188 -68.4375 53.0625 C-66.99846301 53.82377487 -65.55963883 54.58545224 -64.12109375 55.34765625 C-62.57615234 56.16556641 -62.57615234 56.16556641 -61 57 C-61 57.66 -61 58.32 -61 59 C-60.484375 59.0825 -59.96875 59.165 -59.4375 59.25 C-56.55460816 60.13704364 -54.26624693 61.54519537 -51.68359375 63.078125 C-49.82731031 64.09455862 -48.09020128 64.66556779 -46 65 C-45.72760498 64.2673291 -45.45520996 63.5346582 -45.17456055 62.77978516 C-44.05411352 60.1280683 -42.78971832 57.92103782 -41.20703125 55.5234375 C-40.66312744 54.69400635 -40.11922363 53.8645752 -39.55883789 53.01000977 C-38.98254639 52.14045654 -38.40625488 51.27090332 -37.8125 50.375 C-36.61938759 48.55885915 -35.42667492 46.74245561 -34.234375 44.92578125 C-33.66654297 44.06291504 -33.09871094 43.20004883 -32.51367188 42.31103516 C-30.83380447 39.74625695 -29.19082699 37.16026909 -27.5625 34.5625 C-24.09757399 29.09522982 -20.51826127 23.70428498 -16.9375 18.3125 C-16.34718994 17.42054932 -15.75687988 16.52859863 -15.14868164 15.60961914 C-13.45036604 13.06036503 -11.7309352 10.52719559 -10 8 C-9.46262207 7.19997559 -8.92524414 6.39995117 -8.37158203 5.57568359 C-7.85837402 4.8430127 -7.34516602 4.1103418 -6.81640625 3.35546875 C-6.3685376 2.70602295 -5.92066895 2.05657715 -5.45922852 1.38745117 C-4 0 -4 0 0 0 Z M-3 11 C-4.74653583 13.22902378 -4.74653583 13.22902378 -6.5625 16.125 C-7.27664063 17.22328125 -7.99078125 18.3215625 -8.7265625 19.453125 C-9.48476648 20.63516565 -10.24257664 21.81745899 -11 23 C-11.73657773 24.14088427 -12.47355442 25.28151108 -13.2109375 26.421875 C-15.10061838 29.34936213 -16.98099396 32.28271441 -18.85888672 35.21777344 C-21.10618598 38.72767601 -23.36165809 42.23233894 -25.61816406 45.73632812 C-27.53993757 48.72203029 -29.45400008 51.71225622 -31.35546875 54.7109375 C-35.3479304 60.99227766 -39.41782111 67.12541168 -44 73 C-48.5197275 72.36913937 -52.28507393 70.60479731 -56.3125 68.5625 C-57.00311523 68.21703125 -57.69373047 67.8715625 -58.40527344 67.515625 C-64.43339589 64.4321028 -70.14175666 60.90941899 -75.77075195 57.15063477 C-79.22658834 54.88860856 -80.75444644 54 -85 54 C-85 53.34 -85 52.68 -85 52 C-85.99 52 -86.98 52 -88 52 C-88 51.34 -88 50.68 -88 50 C-88.99 50 -89.98 50 -91 50 C-89.17386672 61.34124879 -86.47930395 72.49276041 -83 83.4375 C-80.54205672 91.18197209 -78.78341424 99.07898462 -77 107 C-72.6864684 106.45539343 -68.45236025 105.71107813 -64.19140625 104.84375 C-63.11310547 104.62589844 -62.03480469 104.40804687 -60.92382812 104.18359375 C-58.71669199 103.73472818 -56.51089679 103.27920748 -54.30664062 102.81640625 C-38.29854529 99.61668051 -22.19383307 99.8388959 -5.93725586 99.86962891 C-2.57205693 99.87498479 0.79300825 99.86965519 4.15820312 99.86328125 C21.52714171 99.85528583 38.25749834 100.35340043 55.375 103.5 C56.65632812 103.72558594 57.93765625 103.95117188 59.2578125 104.18359375 C68.48623512 105.82874504 68.48623512 105.82874504 72 107 C72.23074219 106.11441406 72.46148437 105.22882813 72.69921875 104.31640625 C74.31641339 98.17362345 75.96456905 92.05518309 77.81689453 85.97875977 C80.11403857 78.4231259 82.05793309 70.82535473 83.8125 63.125 C84.14109009 61.68821899 84.14109009 61.68821899 84.47631836 60.22241211 C85.62779469 55.15929755 85.62779469 55.15929755 86 50 C81.53367112 51.22824044 78.11324265 53.08176389 74.27734375 55.5703125 C68.09682619 59.45036298 61.560065 62.80861703 55 66 C55 66.66 55 67.32 55 68 C52.03 68.495 52.03 68.495 49 69 C49 69.66 49 70.32 49 71 C46.01725858 71.77330333 43.02266703 72.40348694 40 73 C39.48050781 72.27554688 38.96101562 71.55109375 38.42578125 70.8046875 C34.06700161 64.68440353 34.06700161 64.68440353 29.3125 58.875 C26.93858484 55.92364601 25.24752246 52.97907044 23.4609375 49.65625 C21.65307243 46.36922261 19.7520218 43.1481801 17.8125 39.9375 C17.13832031 38.81214844 16.46414063 37.68679687 15.76953125 36.52734375 C15.18558594 35.69332031 14.60164063 34.85929687 14 34 C13.34 34 12.68 34 12 34 C11.7525 33.113125 11.505 32.22625 11.25 31.3125 C9.92127363 27.79137513 8.40563555 25.87339801 6 23 C4.91993644 21.47058669 3.85859896 19.92784234 2.8125 18.375 C2.30332031 17.61960937 1.79414063 16.86421875 1.26953125 16.0859375 C0 14 0 14 -1 11 C-1.66 11 -2.32 11 -3 11 Z " fill="#C1A752" transform="translate(283,25)"/>
<path d="M0 0 C19.53268463 -0.54341317 19.53268463 -0.54341317 26 5 C26.886875 5.33 27.77375 5.66 28.6875 6 C29.450625 6.33 30.21375 6.66 31 7 C31.495 8.485 31.495 8.485 32 10 C32.66 10 33.32 10 34 10 C34.86646667 11.43011973 35.71781829 12.86940619 36.5625 14.3125 C37.03816406 15.11300781 37.51382813 15.91351563 38.00390625 16.73828125 C39 19 39 19 38 22 C36.02866014 23.37535339 34.02318078 24.70211044 32 26 C25.10905303 31.06273655 21.64048712 37.33581659 18 45 C17.45988281 44.71382812 16.91976562 44.42765625 16.36328125 44.1328125 C6.05486843 39.19158983 -6.13678661 36.35690306 -17.25390625 40.09375 C-19.10633175 40.94226448 -20.93702894 41.8416239 -22.73046875 42.80859375 C-24.84524675 43.9187612 -26.66969527 44.53393905 -29 45 C-29 45.66 -29 46.32 -29 47 C-30.19012534 48.06609243 -31.42878608 49.07832997 -32.6875 50.0625 C-38.36415361 54.9152853 -41.73664957 60.17033264 -42.6875 67.625 C-43.24115297 70.66745491 -43.71977281 71.74955028 -46.05859375 73.83984375 C-47.80170554 75.00987769 -49.5617208 76.15503664 -51.3359375 77.27734375 C-59.88083319 82.80270885 -65.12683894 90.23926119 -68 100 C-68.88295527 105.9695724 -68.98647587 111.9749986 -69 118 C-70.32064453 118.47179687 -70.32064453 118.47179687 -71.66796875 118.953125 C-72.82941406 119.38109375 -73.99085937 119.8090625 -75.1875 120.25 C-76.33605469 120.66765625 -77.48460938 121.0853125 -78.66796875 121.515625 C-81.95831798 122.98143122 -84.21994241 124.75290682 -87 127 C-87.99 127 -88.98 127 -90 127 C-92.92415984 118.22752047 -92.49408911 105.71261456 -88.625 97.375 C-83.71791273 89.17714093 -77.50460703 83.25230351 -69 79 C-68.67 72.73 -68.34 66.46 -68 60 C-67.34 60 -66.68 60 -66 60 C-65.979375 58.865625 -65.95875 57.73125 -65.9375 56.5625 C-64.85713058 48.17113751 -57.4555426 41.9643077 -51.328125 36.72265625 C-47.78802431 34.10321933 -44.13992991 32.44859426 -40 31 C-38.824375 30.5875 -37.64875 30.175 -36.4375 29.75 C-32.46195498 28.88260836 -29.05821366 28.85760654 -25 29 C-24.95875 28.21625 -24.9175 27.4325 -24.875 26.625 C-22.72511089 17.71831656 -17.1699856 11.40616914 -10 6 C-9.43796875 5.56558594 -8.8759375 5.13117188 -8.296875 4.68359375 C-5.17689736 2.42239783 -4.00164494 2 0 2 C0 1.34 0 0.68 0 0 Z " fill="#EAADB8" transform="translate(183,188)"/>
<path d="M0 0 C8.32262809 5.20516909 15.35874728 12.78977254 19 22 C19 23.32 19 24.64 19 26 C19.85658203 26.02126953 19.85658203 26.02126953 20.73046875 26.04296875 C32.74011955 26.7494188 43.601188 31.30597492 52 40 C58.31063186 48.07617726 62.06617264 55.64447054 61.99291992 65.92626953 C61.89729278 72.71211148 61.89729278 72.71211148 65.22265625 78.421875 C67.13704931 79.69638152 69.08707877 80.91872021 71.06640625 82.08984375 C77.96743579 86.5833237 82.63010865 94.32415324 84.609375 102.25390625 C85.6906256 109.85509794 85.41474396 117.46991117 84 125 C80.44044891 123.26030949 77.03213763 121.30885384 73.609375 119.31640625 C70.16267751 117.57757832 66.63018643 116.31345353 63 115 C62.88785156 113.04320312 62.88785156 113.04320312 62.7734375 111.046875 C61.86224207 98.07785774 59.9913263 88.00466003 51 78 C47.9991563 75.90947936 44.90996939 74.04592718 41.77734375 72.16015625 C37.52606324 68.85360474 36.26713827 65.45711784 35.3125 60.25 C33.42030917 52.26922738 27.17213437 46.46273411 20.5625 42.0625 C10.78781691 36.39291637 2.38586319 34.87232665 -9 36 C-12.55673046 36.98259869 -15.70671396 38.35934478 -19 40 C-20.66178021 40.6787553 -22.32733106 41.34853946 -24 42 C-24.53625 40.845 -25.0725 39.69 -25.625 38.5 C-30.36945854 29.17525103 -36.30807334 23.81523919 -45 18 C-44.690625 17.236875 -44.38125 16.47375 -44.0625 15.6875 C-43.32106407 13.81210323 -42.63771783 11.91315348 -42 10 C-41.34 10 -40.68 10 -40 10 C-40 9.01 -40 8.02 -40 7 C-39.34 7 -38.68 7 -38 7 C-38 6.34 -38 5.68 -38 5 C-36.0234375 3.5625 -36.0234375 3.5625 -33.375 2 C-32.51648438 1.484375 -31.65796875 0.96875 -30.7734375 0.4375 C-21.32248475 -4.46102199 -9.58064361 -4.96708645 0 0 Z " fill="#E9ACB7" transform="translate(385,191)"/>
<path d="M0 0 C3.90535859 0.62599555 7.10105792 1.85282233 10.6875 3.5 C16.17163242 5.85810899 21.05349802 6.85528424 27 7 C27.05607422 8.46759766 27.05607422 8.46759766 27.11328125 9.96484375 C27.68671191 21.39972566 28.95348162 30.34164958 37 39 C38.32837891 39.72703125 38.32837891 39.72703125 39.68359375 40.46875 C43.00506745 44.09828619 42.45362049 47.01908522 42.34179688 51.79882812 C42.29087891 52.91708984 42.23996094 54.03535156 42.1875 55.1875 C41.91285141 62.86415312 41.96488815 69.55887675 44 77 C33.14657492 79.70237102 18.7659387 79.74656889 9 74 C1.64989053 68.84922561 -2.1703632 63.4889104 -5 55 C-5.52381922 48.10976256 -5.62263784 42.07668283 -2 36 C-0.19997934 33.92797622 1.63126847 31.93111511 3.57421875 29.9921875 C5.3531576 27.50654691 5.2742021 25.99035496 5 23 C3.2073451 22.22222457 3.2073451 22.22222457 1 22 C-4.99019749 25.45138332 -8.55211664 30.69249102 -11 37 C-11.391875 37.99 -11.78375 38.98 -12.1875 40 C-13.18242962 43.67358629 -13.60844013 47.2149213 -14 51 C-23.55964197 49.48259651 -30.65969517 45.4893385 -36.72265625 37.84765625 C-43.05069613 28.694253 -44.36245746 19.95427002 -44 9 C-41.31250202 9.49801716 -38.97112185 10.01197387 -36.4375 11.0625 C-28.26563001 13.29119182 -19.62760087 12.7382116 -12 9 C-9.57799568 7.51666721 -7.24953242 5.96471691 -4.9453125 4.3046875 C-3 3 -3 3 0 2 C0 1.34 0 0.68 0 0 Z " fill="#EAADB8" transform="translate(145,391)"/>
<path d="M0 0 C1.67542976 0.28604898 3.34385343 0.61781233 5 1 C5.495 2.485 5.495 2.485 6 4 C7.7665379 5.10851304 7.7665379 5.10851304 10 6 C11.31484375 6.62068359 11.31484375 6.62068359 12.65625 7.25390625 C13.5946875 7.68574219 14.533125 8.11757813 15.5 8.5625 C16.90765625 9.21412109 16.90765625 9.21412109 18.34375 9.87890625 C26.01273025 13.11566703 34.94934963 12.78903342 43 11 C43 10.34 43 9.68 43 9 C45.475 8.505 45.475 8.505 48 8 C47.88597936 10.27141109 47.75841495 12.54214552 47.625 14.8125 C47.55539062 16.07707031 47.48578125 17.34164063 47.4140625 18.64453125 C47 22 47 22 45 25 C44.5170548 26.99617349 44.03494798 28.99258421 43.56640625 30.9921875 C42.80964305 33.67478256 41.66797366 35.77603512 40 38 C39.34 38 38.68 38 38 38 C37.73316406 38.598125 37.46632813 39.19625 37.19140625 39.8125 C33.68289651 46.25435395 26.69622706 49.68155071 20 52 C19.34 52 18.68 52 18 52 C17.84144531 50.9378125 17.68289063 49.875625 17.51953125 48.78125 C16.22633362 40.74766324 14.95761571 34.65364213 10 28 C9.505 26.515 9.505 26.515 9 25 C6.15062207 23.16825705 3.31562557 22.55260426 0 22 C-0.80115381 24.2856654 -0.80115381 24.2856654 -1 27 C0.29356645 29.26873739 0.29356645 29.26873739 2.25 31.3125 C8.01146456 38.30445699 9.58137124 44.00284099 9.36328125 53.09375 C8.83184716 57.34522274 7.2339814 60.41258461 5 64 C4.32213714 65.32767623 3.65252079 66.65968703 3 68 C2.01 68 1.02 68 0 68 C-0.495 69.485 -0.495 69.485 -1 71 C-10.94475936 77.77089999 -22.00892361 79.45297781 -33.828125 77.54296875 C-35.89983168 77.09019009 -37.95331598 76.55503295 -40 76 C-39.855625 75.37996094 -39.71125 74.75992188 -39.5625 74.12109375 C-37.70857395 65.27632153 -36.71179885 55.65036377 -38.73828125 46.76171875 C-39 44 -39 44 -37.5234375 42.1640625 C-36.81445312 41.65617187 -36.10546875 41.14828125 -35.375 40.625 C-30.0532863 36.42168498 -26.44046506 31.69709889 -25 25 C-24.85966422 23.560265 -24.75583143 22.11662851 -24.68359375 20.671875 C-24.64169922 19.87265625 -24.59980469 19.0734375 -24.55664062 18.25 C-24.51732422 17.425 -24.47800781 16.6 -24.4375 15.75 C-24.39431641 14.90953125 -24.35113281 14.0690625 -24.30664062 13.203125 C-24.20091457 11.13559329 -24.09998705 9.06781719 -24 7 C-23.34515625 6.98582031 -22.6903125 6.97164063 -22.015625 6.95703125 C-14.94928886 6.58774532 -5.26998733 5.26998733 0 0 Z " fill="#EAADB8" transform="translate(413,391)"/>
<path d="M0 0 C1.85309499 2.1182533 3.38218697 4.11605787 4.9375 6.4375 C5.60434814 7.40212158 5.60434814 7.40212158 6.28466797 8.38623047 C9.0121867 12.38077738 11.47803694 16.44455432 13.73046875 20.7265625 C16.49710459 25.68096884 19.81885615 30.30594325 23 35 C27.32606014 41.4433511 31.5824307 47.93081415 35.8125 54.4375 C36.68938477 55.78231445 36.68938477 55.78231445 37.58398438 57.15429688 C38.14021484 58.00958984 38.69644531 58.86488281 39.26953125 59.74609375 C39.77073486 60.51622803 40.27193848 61.2863623 40.78833008 62.07983398 C42 64 42 64 43 66 C39.84859577 65.65930765 38.39218439 65.41923159 36.1875 63.0625 C35 61 35 61 35 59 C33.7934375 58.566875 33.7934375 58.566875 32.5625 58.125 C30 57 30 57 29 55 C28.95977609 52.6670134 28.95679753 50.33293334 29 48 C28.34 48 27.68 48 27 48 C26.61328125 47.19175781 26.2265625 46.38351563 25.828125 45.55078125 C25.04695313 43.94783203 25.04695313 43.94783203 24.25 42.3125 C23.73953125 41.25675781 23.2290625 40.20101562 22.703125 39.11328125 C20.69803812 35.44801922 18.44382697 32.35931027 15.3984375 29.4921875 C13.58744863 27.55979155 12.71541462 25.53269403 11.625 23.125 C9.60411011 18.92495775 7.39831344 16.21945484 4 13 C3 11 2 9 1 7 C0.01 6.67 -0.98 6.34 -2 6 C-2 6.66 -2 7.32 -2 8 C-2.78375 8.0825 -3.5675 8.165 -4.375 8.25 C-7.06882213 8.7223712 -7.06882213 8.7223712 -8.1875 10.6875 C-8.455625 11.450625 -8.72375 12.21375 -9 13 C-9.33 13.886875 -9.66 14.77375 -10 15.6875 C-11.11853491 19.06119326 -11.11853491 19.06119326 -11.5 22.9375 C-12.96692883 29.89661038 -17.73440667 35.48906439 -21.75 41.20019531 C-23.46718613 43.67267503 -25.08237214 46.20368353 -26.6875 48.75 C-27.23792969 49.61882812 -27.78835937 50.48765625 -28.35546875 51.3828125 C-29.48883018 53.18649933 -30.61608061 54.99403567 -31.73828125 56.8046875 C-35.50082915 62.82810121 -39.52155419 68.48701959 -44 74 C-48.51959489 73.36915788 -52.28533101 71.60515975 -56.3125 69.5625 C-57.34842285 69.04320923 -57.34842285 69.04320923 -58.40527344 68.51342773 C-64.41598477 65.43405856 -70.12389245 61.93828606 -75.77075195 58.23852539 C-78.83705353 56.24722103 -81.42344559 54.74795791 -85 54 C-85 53.34 -85 52.68 -85 52 C-85.99 52 -86.98 52 -88 52 C-88 51.34 -88 50.68 -88 50 C-88.99 50 -89.98 50 -91 50 C-90.69707031 50.67289063 -90.39414063 51.34578125 -90.08203125 52.0390625 C-88.82782755 55.47114339 -88.27420608 58.76837737 -87.6875 62.375 C-86.70672999 68.11818201 -85.29202078 73.46042962 -83.3125 78.9375 C-81.30152378 84.65036339 -80.38752548 88.97733387 -81 95 C-81.33 95.66 -81.66 96.32 -82 97 C-82.06996014 98.70702735 -82.08440154 100.41668003 -82.0625 102.125 C-82.05347656 103.03507812 -82.04445312 103.94515625 -82.03515625 104.8828125 C-82.02355469 105.58148438 -82.01195312 106.28015625 -82 107 C-81.34 107.33 -80.68 107.66 -80 108 C-79.59270772 110.32156597 -79.25561323 112.6568787 -79 115 C-70.42168063 116.84877573 -61.91627129 118.38588588 -53.19335938 119.35302734 C-50.30327403 119.67878418 -47.77151873 120.07616042 -45 121 C-43.29104541 121.14954019 -41.5774082 121.24816513 -39.86328125 121.31640625 C-38.82308838 121.35854248 -37.78289551 121.40067871 -36.71118164 121.4440918 C-35.02883423 121.50270386 -35.02883423 121.50270386 -33.3125 121.5625 C-32.15290771 121.6035083 -30.99331543 121.6445166 -29.79858398 121.68676758 C-14.07391601 122.202488 1.52756438 122.67998737 17.16577148 120.71166992 C23.56639106 119.93652749 29.86349965 119.86676244 36.30419922 120.07421875 C40.12948286 120.16527609 41.72454885 120.1836341 45 118 C47.93359375 117.875 47.93359375 117.875 51.4375 118 C58.17363409 118.11215208 64.41314576 117.35114959 71 116 C71 115.34 71 114.68 71 114 C71.62648438 113.58363281 72.25296875 113.16726562 72.8984375 112.73828125 C75.67629634 110.44060991 75.89595925 108.67899034 76.625 105.1875 C76.86476563 104.10984375 77.10453125 103.0321875 77.3515625 101.921875 C77.56554687 100.95765625 77.77953125 99.9934375 78 99 C78.65438441 96.99594773 79.32060826 94.99571323 80 93 C81.57808058 87.6225189 82.99127002 82.26439055 84 76.75 C84.80697396 72.47100363 86.21398874 68.96028583 88 65 C88.69140522 62.22111387 88.69140522 62.22111387 89 60 C89.66 60.33 90.32 60.66 91 61 C91.66 57.7 92.32 54.4 93 51 C93.33 51 93.66 51 94 51 C94 53.97 94 56.94 94 60 C94.33 60 94.66 60 95 60 C95.20086443 63.71599191 95.1519437 64.77208445 93 68 C90.90632655 74.39626844 89.81086134 80.32744886 90.08984375 87.03515625 C89.94866056 90.12277118 88.52789082 92.37202778 87 95 C86.27437769 97.32199141 85.92189265 99.52443508 85.5625 101.9375 C85.01691822 104.90788968 84.23573083 107.25393148 83 110 C82.5875 110.94875 82.175 111.8975 81.75 112.875 C79.60703517 116.7017229 76.94856932 119.77470411 74 123 C73.01 122.67 72.02 122.34 71 122 C68.5799686 122.28307895 68.5799686 122.28307895 65.9375 122.875 C61.34840724 123.78794949 56.85800059 124.34873143 52.19140625 124.65625 C49.97848726 124.88198871 49.97848726 124.88198871 48.12890625 125.98828125 C45.21843944 127.37142052 42.57843504 127.46694747 39.375 127.6875 C38.22773438 127.77386719 37.08046875 127.86023438 35.8984375 127.94921875 C33 128 33 128 31 127 C25.56612292 126.58644829 20.99525332 126.65847501 16 129 C15.34 128.67 14.68 128.34 14 128 C10.45828022 127.83330682 10.45828022 127.83330682 7 128 C6.67 128.33 6.34 128.66 6 129 C3.98125162 129.1007892 1.95875751 129.12964123 -0.0625 129.125 C-1.16722656 129.12757813 -2.27195312 129.13015625 -3.41015625 129.1328125 C-7 129 -7 129 -10.65234375 128.49609375 C-16.25055917 127.74021656 -21.86198844 127.89366379 -27.5 127.9375 C-29.16289062 127.94426758 -29.16289062 127.94426758 -30.859375 127.95117188 C-33.57297399 127.96286842 -36.28645761 127.97925914 -39 128 C-39.33 127.01 -39.66 126.02 -40 125 C-41.90072266 125.03480469 -41.90072266 125.03480469 -43.83984375 125.0703125 C-45.53905655 125.08908833 -47.2382758 125.10728657 -48.9375 125.125 C-49.76830078 125.14175781 -50.59910156 125.15851563 -51.45507812 125.17578125 C-57.27505267 125.22107288 -62.3596123 124.4456695 -68 123 C-67.505 121.515 -67.505 121.515 -67 120 C-67.59167969 119.87882812 -68.18335938 119.75765625 -68.79296875 119.6328125 C-79.81785835 117.29474456 -79.81785835 117.29474456 -82.52758789 114.3269043 C-84.3349908 111.47060234 -84.94625318 108.94288726 -85.68359375 105.64453125 C-85.96936279 104.390354 -86.25513184 103.13617676 -86.54956055 101.84399414 C-86.84563955 100.50018461 -87.14161745 99.1563528 -87.4375 97.8125 C-87.74742747 96.4404416 -88.05838526 95.06861553 -88.37036133 93.69702148 C-88.98141907 91.00542475 -89.58784829 88.31286584 -90.18945312 85.61914062 C-91.16543681 81.26131468 -92.16642767 76.90995228 -93.1875 72.5625 C-93.4865625 71.28375 -93.785625 70.005 -94.09375 68.6875 C-94.8911526 65.44289632 -95.75249284 62.22822445 -96.64672852 59.00976562 C-98.4096509 52.66165324 -99.68994203 46.58873179 -100 40 C-96.35944616 38.65948599 -95.02255823 38.99028336 -91.390625 40.5546875 C-90.00262676 41.31405664 -88.62278313 42.08845878 -87.25 42.875 C-85.74633046 43.70485614 -84.24241645 44.53426944 -82.73828125 45.36328125 C-81.96436035 45.79592285 -81.19043945 46.22856445 -80.39306641 46.67431641 C-76.43992421 48.86423297 -72.43708891 50.9590188 -68.4375 53.0625 C-66.99846301 53.82377487 -65.55963883 54.58545224 -64.12109375 55.34765625 C-62.57615234 56.16556641 -62.57615234 56.16556641 -61 57 C-61 57.66 -61 58.32 -61 59 C-60.484375 59.0825 -59.96875 59.165 -59.4375 59.25 C-56.55460816 60.13704364 -54.26624693 61.54519537 -51.68359375 63.078125 C-49.82731031 64.09455862 -48.09020128 64.66556779 -46 65 C-45.72760498 64.2673291 -45.45520996 63.5346582 -45.17456055 62.77978516 C-44.05411352 60.1280683 -42.78971832 57.92103782 -41.20703125 55.5234375 C-40.66312744 54.69400635 -40.11922363 53.8645752 -39.55883789 53.01000977 C-38.98254639 52.14045654 -38.40625488 51.27090332 -37.8125 50.375 C-36.61938759 48.55885915 -35.42667492 46.74245561 -34.234375 44.92578125 C-33.66654297 44.06291504 -33.09871094 43.20004883 -32.51367188 42.31103516 C-30.83380447 39.74625695 -29.19082699 37.16026909 -27.5625 34.5625 C-24.09757399 29.09522982 -20.51826127 23.70428498 -16.9375 18.3125 C-16.34718994 17.42054932 -15.75687988 16.52859863 -15.14868164 15.60961914 C-13.45036604 13.06036503 -11.7309352 10.52719559 -10 8 C-9.46262207 7.19997559 -8.92524414 6.39995117 -8.37158203 5.57568359 C-7.85837402 4.8430127 -7.34516602 4.1103418 -6.81640625 3.35546875 C-6.3685376 2.70602295 -5.92066895 2.05657715 -5.45922852 1.38745117 C-4 0 -4 0 0 0 Z " fill="#BEA65C" transform="translate(283,25)"/>
<path d="M0 0 C2.5 2.25 2.5 2.25 5 5 C5 8.94668749 4.44478481 10.63072074 3 14.1875 C-0.24143508 23.60035063 -0.89628597 35.59805531 2.953125 44.94921875 C8.25867023 55.34254429 14.49129224 64.16376408 26 68 C33.93683843 68.57162825 40.6551986 68.06828284 48 65 C51 64 51 64 54 65 C57.1668838 63.62507196 57.1668838 63.62507196 60 62 C59.35330586 63.34313399 58.68096422 64.67391178 58 66 C57.38705078 67.20849609 57.38705078 67.20849609 56.76171875 68.44140625 C54.68608065 71.45591392 52.85398711 72.56915739 49.625 74.25 C48.68914062 74.75015625 47.75328125 75.2503125 46.7890625 75.765625 C38.53555849 79.4184363 29.11165498 79.05729762 20.75 76 C19.15866093 75.35267563 17.57192722 74.69313326 16 74 C17.27504879 86.58271837 18.97524748 99.21622968 29.25 107.875 C30.61125 108.926875 30.61125 108.926875 32 110 C31.505 110.61875 31.01 111.2375 30.5 111.875 C28.80777227 113.83880904 28.80777227 113.83880904 29 116 C33.32816353 120.32816353 40.09342554 121.56948319 45.875 122.875 C49 124 49 124 50.9375 126.5 C52 129 52 129 52 131 C52.66 131 53.32 131 54 131 C54.226875 131.556875 54.45375 132.11375 54.6875 132.6875 C59.04388073 140.36302794 67.67558756 145.06551232 75.8125 147.875 C82.95709788 149.79985204 90.8505625 149.9311699 98 148 C100.24715161 147.62818868 102.49749604 147.27537559 104.75 146.9375 C106.50570312 146.67259766 106.50570312 146.67259766 108.296875 146.40234375 C109.18890625 146.26957031 110.0809375 146.13679687 111 146 C115 151.75 115 151.75 115 154 C117.33214148 155.20628008 119.49642139 156.1654738 122 157 C122 157.66 122 158.32 122 159 C125.3 159.66 128.6 160.32 132 161 C132.33 161.99 132.66 162.98 133 164 C136.77081722 164.02899599 140.54160583 164.04679729 144.3125 164.0625 C145.9202832 164.07506836 145.9202832 164.07506836 147.56054688 164.08789062 C148.58857422 164.09111328 149.61660156 164.09433594 150.67578125 164.09765625 C151.62364502 164.10289307 152.57150879 164.10812988 153.5480957 164.11352539 C156.13838681 164.10498854 156.13838681 164.10498854 159 163 C159.86625 163.061875 160.7325 163.12375 161.625 163.1875 C171.17102168 162.65716546 180.94839075 155.61121694 187.875 149.4375 C190.29697724 146.65934963 192.67325431 143.85857328 195 141 C196.32 141.66 197.64 142.32 199 143 C198.01 143.33 197.02 143.66 196 144 C194.94978897 145.84971696 194.94978897 145.84971696 194 148 C191.9832193 151.02517104 189.90956175 152.85920319 187 155 C186.39800781 155.495 185.79601562 155.99 185.17578125 156.5 C180.9196596 159.92631177 177.18554885 161.9037009 171.8828125 163.26171875 C169.62751658 163.9389162 169.62751658 163.9389162 168 167 C167.34 167 166.68 167 166 167 C165.67 167.66 165.34 168.32 165 169 C162.69 169 160.38 169 158 169 C158 168.34 158 167.68 158 167 C155.24358584 167.49756092 155.24358584 167.49756092 153 169 C148.07449054 169.24223817 145.37938287 169.18969143 141 167 C139.01669827 167.86649466 139.01669827 167.86649466 137 169 C133.78535612 169.24109829 131.08434438 168.91387982 128 168 C128 166.68 128 165.36 128 164 C126.741875 163.731875 125.48375 163.46375 124.1875 163.1875 C121.00551199 162.40467463 118.99755689 161.74664072 117 159 C116.67 159.66 116.34 160.32 116 161 C115.01 158.525 115.01 158.525 114 156 C113.01 156 112.02 156 111 156 C110.34 155.01 109.68 154.02 109 153 C106.08132256 152.55699771 106.08132256 152.55699771 102.75 152.6875 C101.63109375 152.69136719 100.5121875 152.69523438 99.359375 152.69921875 C96.00479297 152.8620747 96.00479297 152.8620747 93.0078125 154.04296875 C89.44534931 155.17647976 86.82868802 155.00292735 83.125 154.625 C81.97257812 154.51414062 80.82015625 154.40328125 79.6328125 154.2890625 C78.32957031 154.14597656 78.32957031 154.14597656 77 154 C77 153.34 77 152.68 77 152 C76.236875 151.855625 75.47375 151.71125 74.6875 151.5625 C72 151 72 151 69 150 C68.67 150.66 68.34 151.32 68 152 C65.125 152.125 65.125 152.125 62 152 C61.34 151.34 60.68 150.68 60 150 C60.66 149.01 61.32 148.02 62 147 C61.34 146.67 60.68 146.34 60 146 C60 145.34 60 144.68 60 144 C59.01 144.33 58.02 144.66 57 145 C56.71125 143.9275 56.4225 142.855 56.125 141.75 C54.94370381 137.68670746 54.94370381 137.68670746 53 134 C52.01 133.67 51.02 133.34 50 133 C49.525625 132.319375 49.05125 131.63875 48.5625 130.9375 C48.046875 130.298125 47.53125 129.65875 47 129 C45.68 129 44.36 129 43 129 C43 128.34 43 127.68 43 127 C42.01 127 41.02 127 40 127 C39.67 125.68 39.34 124.36 39 123 C38.030625 122.79375 37.06125 122.5875 36.0625 122.375 C26.34326734 119.53369206 18.64576521 112.02261474 13.49609375 103.515625 C9.02996622 94.92999476 6.72733486 87.40909638 6.875 77.75 C6.73052797 69.12787554 4.61812868 64.63852669 -0.703125 58.00390625 C-8.98301974 47.1752684 -10.5979624 33.21580131 -9 20 C-7.24274289 12.8339811 -3.89355481 6.23202617 0 0 Z " fill="#CF909B" transform="translate(85,326)"/>
<path d="M0 0 C8.23880597 -0.32309043 8.23880597 -0.32309043 12 2 C12.8125 4.625 12.8125 4.625 13 7 C13.66 7 14.32 7 15 7 C15.3403125 7.8353125 15.3403125 7.8353125 15.6875 8.6875 C20.04388073 16.36302794 28.67558756 21.06551232 36.8125 23.875 C43.95709788 25.79985204 51.8505625 25.9311699 59 24 C61.24715161 23.62818868 63.49749604 23.27537559 65.75 22.9375 C66.92046875 22.76089844 68.0909375 22.58429688 69.296875 22.40234375 C70.63492188 22.20318359 70.63492188 22.20318359 72 22 C76 27.75 76 27.75 76 30 C78.33214148 31.20628008 80.49642139 32.1654738 83 33 C83 33.66 83 34.32 83 35 C86.3 35.66 89.6 36.32 93 37 C93.33 37.99 93.66 38.98 94 40 C97.77081722 40.02899599 101.54160583 40.04679729 105.3125 40.0625 C106.9202832 40.07506836 106.9202832 40.07506836 108.56054688 40.08789062 C109.58857422 40.09111328 110.61660156 40.09433594 111.67578125 40.09765625 C112.62364502 40.10289307 113.57150879 40.10812988 114.5480957 40.11352539 C117.13838681 40.10498854 117.13838681 40.10498854 120 39 C121.299375 39.0928125 121.299375 39.0928125 122.625 39.1875 C132.17102168 38.65716546 141.94839075 31.61121694 148.875 25.4375 C151.29697724 22.65934963 153.67325431 19.85857328 156 17 C157.98 17.99 157.98 17.99 160 19 C159.01 19.33 158.02 19.66 157 20 C155.94978897 21.84971696 155.94978897 21.84971696 155 24 C152.9832193 27.02517104 150.90956175 28.85920319 148 31 C147.09701172 31.7425 147.09701172 31.7425 146.17578125 32.5 C141.9196596 35.92631177 138.18554885 37.9037009 132.8828125 39.26171875 C130.62751658 39.9389162 130.62751658 39.9389162 129 43 C128.34 43 127.68 43 127 43 C126.505 43.99 126.505 43.99 126 45 C123.69 45 121.38 45 119 45 C119 44.34 119 43.68 119 43 C116.24358584 43.49756092 116.24358584 43.49756092 114 45 C109.07449054 45.24223817 106.37938287 45.18969143 102 43 C100.01669827 43.86649466 100.01669827 43.86649466 98 45 C94.78535612 45.24109829 92.08434438 44.91387982 89 44 C89 42.68 89 41.36 89 40 C87.741875 39.731875 86.48375 39.46375 85.1875 39.1875 C82.00551199 38.40467463 79.99755689 37.74664072 78 35 C77.505 35.99 77.505 35.99 77 37 C76.01 34.525 76.01 34.525 75 32 C74.01 32 73.02 32 72 32 C71.01 30.515 71.01 30.515 70 29 C67.08132256 28.55699771 67.08132256 28.55699771 63.75 28.6875 C62.63109375 28.69136719 61.5121875 28.69523437 60.359375 28.69921875 C57.00479297 28.8620747 57.00479297 28.8620747 54.0078125 30.04296875 C50.44534931 31.17647976 47.82868802 31.00292735 44.125 30.625 C42.97257812 30.51414062 41.82015625 30.40328125 40.6328125 30.2890625 C39.76398438 30.19367188 38.89515625 30.09828125 38 30 C38 29.34 38 28.68 38 28 C37.236875 27.855625 36.47375 27.71125 35.6875 27.5625 C33 27 33 27 30 26 C29.67 26.66 29.34 27.32 29 28 C26.125 28.125 26.125 28.125 23 28 C22.34 27.34 21.68 26.68 21 26 C21.66 25.01 22.32 24.02 23 23 C22.34 22.67 21.68 22.34 21 22 C21 21.34 21 20.68 21 20 C20.01 20.33 19.02 20.66 18 21 C17.566875 19.39125 17.566875 19.39125 17.125 17.75 C15.94370381 13.68670746 15.94370381 13.68670746 14 10 C13.01 9.67 12.02 9.34 11 9 C10.525625 8.319375 10.05125 7.63875 9.5625 6.9375 C9.046875 6.298125 8.53125 5.65875 8 5 C6.68 5 5.36 5 4 5 C4 4.34 4 3.68 4 3 C3.01 3 2.02 3 1 3 C0.67 2.01 0.34 1.02 0 0 Z " fill="#C5A2A9" transform="translate(124,450)"/>
<path d="M0 0 C0.89203125 0.11085938 1.7840625 0.22171875 2.703125 0.3359375 C3.37859375 0.43132813 4.0540625 0.52671875 4.75 0.625 C4.42 1.945 4.09 3.265 3.75 4.625 C1.11 4.295 -1.53 3.965 -4.25 3.625 C-8.89725042 10.21553464 -13.46559887 16.85176486 -17.9375 23.5625 C-18.53908936 24.46492432 -19.14067871 25.36734863 -19.76049805 26.29711914 C-25.26748225 34.59199147 -30.58504194 42.9992253 -35.87158203 51.43554688 C-38.05842888 54.9090932 -40.27683749 58.36211969 -42.5 61.8125 C-42.88325439 62.40732178 -43.26650879 63.00214355 -43.66137695 63.61499023 C-44.5236036 64.95207805 -45.38668902 66.28861204 -46.25 67.625 C-50.10025879 67.02144592 -53.11101159 65.85727397 -56.5625 64.0625 C-57.44550781 63.60746094 -58.32851562 63.15242188 -59.23828125 62.68359375 C-60.23408203 62.15958984 -60.23408203 62.15958984 -61.25 61.625 C-61.25 60.965 -61.25 60.305 -61.25 59.625 C-62.57 58.965 -63.89 58.305 -65.25 57.625 C-61.46293268 57.625 -57.98486879 58.0504048 -54.25 58.625 C-54.25 59.285 -54.25 59.945 -54.25 60.625 C-53.26 60.955 -52.27 61.285 -51.25 61.625 C-51.25 62.285 -51.25 62.945 -51.25 63.625 C-48.775 63.13 -48.775 63.13 -46.25 62.625 C-46.06824219 61.93792969 -45.88648438 61.25085938 -45.69921875 60.54296875 C-45.44785156 59.64191406 -45.19648438 58.74085937 -44.9375 57.8125 C-44.69386719 56.91917969 -44.45023438 56.02585938 -44.19921875 55.10546875 C-43.21447029 52.53215487 -42.45022753 51.26023083 -40.25 49.625 C-39.26 49.625 -38.27 49.625 -37.25 49.625 C-37.12753906 49.05265625 -37.00507813 48.4803125 -36.87890625 47.890625 C-36.22237132 45.52546809 -35.31276488 43.55293203 -34.1875 41.375 C-33.82527344 40.66859375 -33.46304688 39.9621875 -33.08984375 39.234375 C-32.81269531 38.70328125 -32.53554687 38.1721875 -32.25 37.625 C-31.59 37.625 -30.93 37.625 -30.25 37.625 C-29.981875 36.861875 -29.71375 36.09875 -29.4375 35.3125 C-28.26888538 32.6677406 -27.24065202 31.61565202 -25.25 29.625 C-24.05972016 27.02584462 -24.05972016 27.02584462 -23.25 24.625 C-22.26 24.625 -21.27 24.625 -20.25 24.625 C-20.10304688 23.92375 -19.95609375 23.2225 -19.8046875 22.5 C-18.37849992 16.46739047 -16.67702693 12.12045412 -12.65234375 7.37890625 C-11.16320982 5.66805015 -11.16320982 5.66805015 -10.31640625 3.52734375 C-7.92472954 -0.73912715 -4.44581911 -0.5849762 0 0 Z " fill="#F1E9CE" transform="translate(283.25,22.375)"/>
</svg>